<mxfile>
    <diagram id="eWJvaYuN5V-Qxtxjg37E" name="第 1 页">
        <mxGraphModel dx="764" dy="490" grid="1" gridSize="10" guides="1" tooltips="1" connect="1" arrows="1" fold="1" page="1" pageScale="1" pageWidth="850" pageHeight="1100" math="0" shadow="0">
            <root>
                <mxCell id="0"/>
                <mxCell id="1" parent="0"/>
                <mxCell id="7" style="edgeStyle=orthogonalEdgeStyle;rounded=0;orthogonalLoop=1;jettySize=auto;html=1;entryX=1.022;entryY=0.635;entryDx=0;entryDy=0;entryPerimeter=0;" edge="1" parent="1" source="2" target="4">
                    <mxGeometry relative="1" as="geometry"/>
                </mxCell>
                <mxCell id="10" style="edgeStyle=orthogonalEdgeStyle;rounded=0;orthogonalLoop=1;jettySize=auto;html=1;exitX=0;exitY=0.5;exitDx=0;exitDy=0;entryX=1;entryY=0.5;entryDx=0;entryDy=0;" edge="1" parent="1" source="2" target="6">
                    <mxGeometry relative="1" as="geometry"/>
                </mxCell>
                <mxCell id="2" value="index.js" style="rounded=0;whiteSpace=wrap;html=1;" vertex="1" parent="1">
                    <mxGeometry x="280" y="175" width="120" height="60" as="geometry"/>
                </mxCell>
                <mxCell id="8" style="edgeStyle=orthogonalEdgeStyle;rounded=0;orthogonalLoop=1;jettySize=auto;html=1;entryX=1;entryY=0.5;entryDx=0;entryDy=0;" edge="1" parent="1" source="3" target="5">
                    <mxGeometry relative="1" as="geometry">
                        <mxPoint x="190" y="230" as="targetPoint"/>
                        <Array as="points">
                            <mxPoint x="180" y="295"/>
                            <mxPoint x="180" y="250"/>
                        </Array>
                    </mxGeometry>
                </mxCell>
                <mxCell id="3" value="list.js" style="rounded=0;whiteSpace=wrap;html=1;" vertex="1" parent="1">
                    <mxGeometry x="280" y="265" width="120" height="60" as="geometry"/>
                </mxCell>
                <mxCell id="9" value="" style="edgeStyle=orthogonalEdgeStyle;rounded=0;orthogonalLoop=1;jettySize=auto;html=1;" edge="1" parent="1" source="4" target="5">
                    <mxGeometry relative="1" as="geometry"/>
                </mxCell>
                <mxCell id="4" value="a.js" style="rounded=0;whiteSpace=wrap;html=1;" vertex="1" parent="1">
                    <mxGeometry x="20" y="130" width="120" height="60" as="geometry"/>
                </mxCell>
                <mxCell id="5" value="b.js" style="rounded=0;whiteSpace=wrap;html=1;" vertex="1" parent="1">
                    <mxGeometry x="20" y="220" width="120" height="60" as="geometry"/>
                </mxCell>
                <mxCell id="6" value="index.css" style="rounded=0;whiteSpace=wrap;html=1;" vertex="1" parent="1">
                    <mxGeometry x="20" y="320" width="120" height="60" as="geometry"/>
                </mxCell>
                <mxCell id="12" style="edgeStyle=orthogonalEdgeStyle;rounded=0;orthogonalLoop=1;jettySize=auto;html=1;entryX=1;entryY=0.5;entryDx=0;entryDy=0;" edge="1" parent="1" source="11" target="2">
                    <mxGeometry relative="1" as="geometry"/>
                </mxCell>
                <mxCell id="13" style="edgeStyle=orthogonalEdgeStyle;rounded=0;orthogonalLoop=1;jettySize=auto;html=1;exitX=0;exitY=0.5;exitDx=0;exitDy=0;entryX=1;entryY=0.5;entryDx=0;entryDy=0;" edge="1" parent="1" source="11" target="3">
                    <mxGeometry relative="1" as="geometry"/>
                </mxCell>
                <mxCell id="16" style="edgeStyle=orthogonalEdgeStyle;rounded=0;orthogonalLoop=1;jettySize=auto;html=1;entryX=0;entryY=0.5;entryDx=0;entryDy=0;" edge="1" parent="1" source="11" target="14">
                    <mxGeometry relative="1" as="geometry"/>
                </mxCell>
                <mxCell id="17" style="edgeStyle=orthogonalEdgeStyle;rounded=0;orthogonalLoop=1;jettySize=auto;html=1;exitX=1;exitY=0.5;exitDx=0;exitDy=0;entryX=0;entryY=0.5;entryDx=0;entryDy=0;" edge="1" parent="1" source="11" target="15">
                    <mxGeometry relative="1" as="geometry"/>
                </mxCell>
                <mxCell id="19" style="edgeStyle=orthogonalEdgeStyle;rounded=0;orthogonalLoop=1;jettySize=auto;html=1;exitX=1;exitY=0.5;exitDx=0;exitDy=0;entryX=0;entryY=0.5;entryDx=0;entryDy=0;" edge="1" parent="1" source="11" target="18">
                    <mxGeometry relative="1" as="geometry"/>
                </mxCell>
                <mxCell id="11" value="webpack" style="rounded=0;whiteSpace=wrap;html=1;" vertex="1" parent="1">
                    <mxGeometry x="450" y="205" width="120" height="60" as="geometry"/>
                </mxCell>
                <mxCell id="14" value="/dist/index.js" style="rounded=0;whiteSpace=wrap;html=1;" vertex="1" parent="1">
                    <mxGeometry x="630" y="110" width="120" height="60" as="geometry"/>
                </mxCell>
                <mxCell id="15" value="/dist/list.js" style="rounded=0;whiteSpace=wrap;html=1;" vertex="1" parent="1">
                    <mxGeometry x="630" y="260" width="120" height="60" as="geometry"/>
                </mxCell>
                <mxCell id="18" value="/dist/index.css" style="rounded=0;whiteSpace=wrap;html=1;" vertex="1" parent="1">
                    <mxGeometry x="630" y="380" width="120" height="60" as="geometry"/>
                </mxCell>
            </root>
        </mxGraphModel>
    </diagram>
</mxfile>